<svg width="1200" height="630" viewBox="0 0 1200 630" fill="none" xmlns="http://www.w3.org/2000/svg">
<rect width="1200" height="630" rx="50" fill="#DFEC30"/>
<path d="M461.488 326.164C471.747 321.714 479.673 315.226 485.255 306.7C490.837 298.174 493.634 287.949 493.634 276.026C493.634 264.103 490.837 254.071 485.255 245.466C479.673 236.86 471.747 230.27 461.488 225.662C451.229 221.065 439 218.755 424.824 218.755H356.24V377.196H393.131V332.833H424.824C425.368 332.833 425.888 332.811 426.432 332.799L457.197 377.196H496.578L461.273 326.243C461.341 326.209 461.42 326.187 461.499 326.153L461.488 326.164ZM448.138 296.396C442.397 301.231 433.95 303.643 422.786 303.643H393.131V248.647H422.786C433.95 248.647 442.397 251.025 448.138 255.781C453.868 260.536 456.744 267.285 456.744 276.038C456.744 284.79 453.879 291.584 448.138 296.407V296.396Z" fill="black"/>
<path d="M679.641 265.142C675.338 255.178 669.269 246.505 661.422 239.111C653.575 231.717 644.404 226.022 633.918 222.025C623.433 218.028 611.929 216.023 599.406 216.023C586.882 216.023 575.378 218.062 564.882 222.138C554.397 226.214 545.225 231.943 537.378 239.337C529.531 246.731 523.462 255.371 519.159 265.255C514.856 275.14 512.705 286.044 512.705 297.956C512.705 309.868 514.856 320.591 519.159 330.543C523.462 340.496 529.531 349.181 537.378 356.575C545.225 363.969 554.431 369.698 564.995 373.774C575.559 377.851 587.098 379.889 599.621 379.889C612.144 379.889 623.422 377.885 633.907 373.888C644.392 369.891 653.564 364.195 661.411 356.801C669.258 349.407 675.327 340.7 679.63 330.657C683.932 320.625 686.084 309.721 686.084 297.956C686.084 286.192 683.932 275.095 679.63 265.142H679.641ZM645.23 318.439C642.739 324.554 639.229 329.909 634.7 334.506C630.171 339.115 624.928 342.659 618.972 345.15C613.005 347.641 606.483 348.887 599.394 348.887C592.306 348.887 585.739 347.641 579.704 345.15C573.668 342.659 568.426 339.115 563.976 334.506C559.526 329.909 556.05 324.554 553.559 318.439C551.068 312.325 549.822 305.508 549.822 297.956C549.822 290.404 551.068 283.587 553.559 277.473C556.05 271.359 559.515 266.003 563.976 261.406C568.426 256.809 573.668 253.253 579.704 250.762C585.739 248.271 592.306 247.026 599.394 247.026C606.483 247.026 613.005 248.271 618.972 250.762C624.928 253.253 630.171 256.797 634.7 261.406C639.229 266.014 642.739 271.37 645.23 277.473C647.721 283.587 648.967 290.415 648.967 297.956C648.967 305.497 647.721 312.325 645.23 318.439Z" fill="black"/>
<path d="M727.501 217.342L721.839 246.77H777.288L762.127 323.732C760.462 332.19 757.45 338.372 753.068 342.29C748.686 346.219 742.957 348.178 735.868 348.178C729.833 348.178 724.477 346.785 719.801 343.988C715.125 341.203 711.196 337.081 708.036 331.658L683.816 354.745C688.799 362.445 695.626 368.321 704.3 372.398C712.973 376.474 723.277 378.512 735.2 378.512C747.124 378.512 756.85 376.666 765.308 372.964C773.755 369.272 780.776 363.305 786.358 355.085C791.94 346.864 796.017 335.734 798.576 321.705L819.399 217.364H727.501V217.342Z" fill="black"/>
<path d="M978.093 219.366L962.105 248.24L962.037 248.636H1012.52L986.925 377.208H1023.83L1049.39 248.636H1099.87L1105.98 218.755L978.093 219.366Z" fill="black"/>
<path d="M939.326 248.194L956.333 218.755H843.952L812.259 377.208H906.942L923.927 347.78H854.584L861.922 311.116H923.417L940.006 282.378H867.674L874.502 248.194H939.326Z" fill="black"/>
<path d="M146.216 302.887H172.599C172.599 299.241 172.882 295.652 173.437 292.085H138.687L146.205 302.887H146.216Z" fill="black"/>
<path d="M123.839 270.72H175.393C176.367 267.04 177.51 263.44 178.801 259.918H116.32L123.839 270.72Z" fill="black"/>
<path d="M192.271 227.751H93.8506L101.369 238.542H186.564C188.319 234.771 190.232 231.159 192.282 227.751H192.271Z" fill="black"/>
<path d="M221.099 388.082C218.993 386.395 216.422 385.297 213.603 385.002C213.093 384.946 212.572 384.923 212.052 384.923C204.023 384.923 197.513 391.434 197.513 399.461C197.513 407.489 204.023 414 212.052 414C220.08 414 226.59 407.489 226.59 399.461C226.59 394.853 224.45 390.754 221.099 388.093V388.082Z" fill="black"/>
<path d="M307.763 414C315.793 414 322.302 407.491 322.302 399.461C322.302 391.432 315.793 384.923 307.763 384.923C299.734 384.923 293.225 391.432 293.225 399.461C293.225 407.491 299.734 414 307.763 414Z" fill="black"/>
<path d="M234.758 261.055C239.332 256.548 244.779 253.061 251.086 250.581C257.393 248.101 264.288 246.867 271.795 246.867C279.903 246.867 287.331 248.328 294.091 251.26C300.839 254.182 307.146 258.733 313 264.882L336.19 243.266C328.535 234.412 319.115 227.652 307.939 222.998C296.751 218.345 284.183 216.023 270.222 216.023C257.608 216.023 246.058 218.016 235.55 221.991C225.043 225.965 215.882 231.638 208.081 238.986C200.279 246.346 194.233 254.974 189.952 264.882C185.672 274.789 183.532 285.671 183.532 297.526C183.532 309.381 185.672 320.262 189.952 330.17C194.233 340.077 200.2 348.705 207.854 356.065C215.509 363.425 224.59 369.087 235.097 373.061C245.605 377.035 257.087 379.028 269.542 379.028C280.797 379.028 292.052 377.341 303.319 373.967C314.574 370.593 324.561 365.599 333.268 358.998V295.057H332.464V294.095H279.235V323.274H299.945V341.368C297.533 342.648 295.087 343.723 292.63 344.584C285.802 346.984 278.782 348.185 271.58 348.185C264.379 348.185 257.211 346.916 250.984 344.357C244.756 341.81 239.355 338.277 234.769 333.782C230.195 329.275 226.662 323.908 224.182 317.681C221.702 311.453 220.468 304.739 220.468 297.526C220.468 290.313 221.702 283.191 224.182 277.043C226.662 270.894 230.183 265.561 234.769 261.055H234.758Z" fill="black"/>
</svg>
